<svg width="24" height="24" viewBox="0 0 24 24" fill="none" xmlns="http://www.w3.org/2000/svg"><path d="M21.75 12C21.75 13.9284 21.1782 15.8134 20.1068 17.4168C19.0355 19.0202 17.5127 20.2699 15.7312 21.0078C13.9496 21.7458 11.9892 21.9389 10.0979 21.5627C8.20656 21.1864 6.46927 20.2579 5.10571 18.8943C3.74215 17.5307 2.81355 15.7934 2.43735 13.9021C2.06114 12.0108 2.25422 10.0504 2.99218 8.26884C3.73013 6.48726 4.97982 4.96451 6.58319 3.89317C8.18657 2.82183 10.0716 2.25 12 2.25C14.5859 2.25 17.0658 3.27723 18.8943 5.10571C20.7228 6.93419 21.75 9.41414 21.75 12Z" fill="#2C3882"></path><path d="M16.2806 9.96948C16.3503 10.0391 16.4056 10.1218 16.4433 10.2129C16.4811 10.3039 16.5005 10.4015 16.5005 10.5001C16.5005 10.5987 16.4811 10.6963 16.4433 10.7873C16.4056 10.8784 16.3503 10.9611 16.2806 11.0307L12.5306 14.7807C12.4609 14.8505 12.3782 14.9058 12.2871 14.9435C12.1961 14.9813 12.0985 15.0007 11.9999 15.0007C11.9014 15.0007 11.8038 14.9813 11.7127 14.9435C11.6217 14.9058 11.539 14.8505 11.4693 14.7807L7.7193 11.0307C7.57857 10.89 7.49951 10.6991 7.49951 10.5001C7.49951 10.3011 7.57857 10.1102 7.7193 9.96948C7.86003 9.82875 8.05091 9.74968 8.24993 9.74968C8.44895 9.74968 8.63982 9.82875 8.78055 9.96948L11.9999 13.1898L15.2193 9.96948C15.289 9.89974 15.3717 9.84443 15.4627 9.80668C15.5538 9.76894 15.6514 9.74951 15.7499 9.74951C15.8485 9.74951 15.9461 9.76894 16.0371 9.80668C16.1282 9.84443 16.2109 9.89974 16.2806 9.96948Z" fill="white"></path></svg>
