<svg width="24" height="24" viewBox="0 0 24 24" fill="none" xmlns="http://www.w3.org/2000/svg"><path opacity="0.2" d="M12.75 10.125C12.75 11.0892 12.4641 12.0317 11.9284 12.8334C11.3927 13.6351 10.6314 14.2599 9.74058 14.6289C8.84979 14.9979 7.86959 15.0944 6.92394 14.9063C5.97828 14.7182 5.10964 14.2539 4.42786 13.5721C3.74608 12.8904 3.28178 12.0217 3.09367 11.0761C2.90557 10.1304 3.00211 9.15021 3.37109 8.25942C3.74007 7.36863 4.36491 6.60726 5.1666 6.07159C5.96829 5.53591 6.91082 5.25 7.875 5.25C9.16793 5.25 10.4079 5.76361 11.3221 6.67785C12.2364 7.59209 12.75 8.83207 12.75 10.125Z" fill="#9DA5AC"></path><path d="M10.9921 14.8051C11.9973 14.1359 12.7605 13.161 13.1687 12.0245C13.577 10.888 13.6087 9.65036 13.2591 8.49449C12.9095 7.33862 12.1973 6.32593 11.2276 5.60617C10.258 4.88642 9.0825 4.4978 7.87492 4.4978C6.66735 4.4978 5.49184 4.88642 4.52221 5.60617C3.55258 6.32593 2.84032 7.33862 2.49076 8.49449C2.1412 9.65036 2.17288 10.888 2.58114 12.0245C2.9894 13.161 3.75255 14.1359 4.75774 14.8051C2.93945 15.4752 1.38659 16.7154 0.330862 18.3404C0.275377 18.4229 0.236837 18.5155 0.217482 18.613C0.198127 18.7105 0.198344 18.8109 0.218119 18.9083C0.237895 19.0057 0.276835 19.0982 0.332676 19.1804C0.388516 19.2627 0.460144 19.333 0.543396 19.3873C0.626647 19.4416 0.719861 19.4788 0.81762 19.4967C0.915378 19.5147 1.01573 19.513 1.11285 19.4919C1.20996 19.4707 1.3019 19.4304 1.38332 19.3734C1.46473 19.3164 1.53401 19.2438 1.58711 19.1598C2.2681 18.1124 3.19995 17.2517 4.29802 16.6559C5.3961 16.0601 6.62562 15.748 7.87492 15.748C9.12423 15.748 10.3538 16.0601 11.4518 16.6559C12.5499 17.2517 13.4817 18.1124 14.1627 19.1598C14.2727 19.3233 14.4427 19.4369 14.6358 19.4761C14.8289 19.5153 15.0297 19.4769 15.1947 19.3693C15.3598 19.2616 15.4758 19.0934 15.5178 18.9008C15.5598 18.7083 15.5243 18.507 15.419 18.3404C14.3633 16.7154 12.8104 15.4752 10.9921 14.8051ZM3.74992 10.1251C3.74992 9.30924 3.99185 8.51171 4.44511 7.83336C4.89837 7.155 5.54261 6.62629 6.29636 6.31408C7.0501 6.00187 7.8795 5.92018 8.67967 6.07935C9.47984 6.23851 10.2148 6.63138 10.7917 7.20827C11.3686 7.78516 11.7615 8.52017 11.9207 9.32034C12.0798 10.1205 11.9981 10.9499 11.6859 11.7037C11.3737 12.4574 10.845 13.1016 10.1667 13.5549C9.4883 14.0082 8.69077 14.2501 7.87492 14.2501C6.78129 14.2488 5.7328 13.8138 4.95948 13.0405C4.18616 12.2672 3.75117 11.2187 3.74992 10.1251ZM23.4506 19.3782C23.284 19.4868 23.081 19.5249 22.8864 19.4839C22.6918 19.4429 22.5214 19.3263 22.4127 19.1598C21.7326 18.1118 20.8008 17.2507 19.7025 16.6551C18.6042 16.0596 17.3743 15.7484 16.1249 15.7501C15.926 15.7501 15.7352 15.6711 15.5946 15.5304C15.4539 15.3898 15.3749 15.199 15.3749 15.0001C15.3749 14.8012 15.4539 14.6104 15.5946 14.4698C15.7352 14.3291 15.926 14.2501 16.1249 14.2501C16.7324 14.2495 17.3322 14.1148 17.8816 13.8555C18.431 13.5962 18.9163 13.2188 19.3029 12.7502C19.6895 12.2817 19.9678 11.7335 20.118 11.1449C20.2682 10.5563 20.2865 9.94174 20.1716 9.34522C20.0568 8.74871 19.8116 8.18492 19.4536 7.69414C19.0956 7.20337 18.6337 6.79772 18.1007 6.50618C17.5678 6.21464 16.977 6.04441 16.3707 6.00765C15.7643 5.97089 15.1573 6.0685 14.5931 6.29352C14.501 6.33329 14.402 6.35422 14.3018 6.35507C14.2016 6.35591 14.1022 6.33666 14.0095 6.29845C13.9169 6.26024 13.8328 6.20385 13.7623 6.1326C13.6918 6.06135 13.6363 5.9767 13.5991 5.88364C13.5619 5.79058 13.5437 5.691 13.5456 5.59079C13.5475 5.49058 13.5695 5.39177 13.6102 5.3002C13.651 5.20862 13.7097 5.12615 13.7828 5.05764C13.856 4.98913 13.9421 4.93598 14.0362 4.90134C15.3275 4.38632 16.7639 4.36779 18.0681 4.84931C19.3723 5.33083 20.452 6.27829 21.0989 7.50891C21.7458 8.73953 21.914 10.1661 21.5711 11.5134C21.2283 12.8608 20.3986 14.0334 19.2421 14.8051C21.0604 15.4752 22.6133 16.7154 23.669 18.3404C23.7776 18.507 23.8156 18.7099 23.7747 18.9045C23.7337 19.0992 23.6171 19.2695 23.4506 19.3782Z" fill="#9DA5AC"></path></svg>