<svg width="25" height="24" viewBox="0 0 25 24" fill="none" xmlns="http://www.w3.org/2000/svg"><path opacity="0.2" d="M12.1113 3C10.3313 3 8.59124 3.52784 7.1112 4.51677C5.63116 5.50571 4.47761 6.91131 3.79642 8.55585C3.11523 10.2004 2.937 12.01 3.28426 13.7558C3.63153 15.5016 4.4887 17.1053 5.74737 18.364C7.00604 19.6226 8.60969 20.4798 10.3555 20.8271C12.1013 21.1743 13.9109 20.9961 15.5555 20.3149C17.2 19.6337 18.6056 18.4802 19.5946 17.0001C20.5835 15.5201 21.1113 13.78 21.1113 12C21.1113 9.61305 20.1631 7.32387 18.4753 5.63604C16.7875 3.94821 14.4983 3 12.1113 3ZM10.6113 15V9L15.1113 12L10.6113 15Z" fill="#E62F2B"></path><path d="M12.1113 2.25C10.183 2.25 8.2979 2.82183 6.69452 3.89317C5.09114 4.96451 3.84146 6.48726 3.10351 8.26884C2.36555 10.0504 2.17247 12.0108 2.54868 13.9021C2.92488 15.7934 3.85348 17.5307 5.21704 18.8943C6.5806 20.2579 8.31789 21.1865 10.2092 21.5627C12.1005 21.9389 14.0609 21.7458 15.8425 21.0078C17.6241 20.2699 19.1468 19.0202 20.2182 17.4168C21.2895 15.8134 21.8613 13.9284 21.8613 12C21.8586 9.41498 20.8305 6.93661 19.0026 5.10872C17.1747 3.28084 14.6964 2.25273 12.1113 2.25ZM12.1113 20.25C10.4796 20.25 8.88458 19.7661 7.52788 18.8596C6.17117 17.9531 5.11375 16.6646 4.48933 15.1571C3.8649 13.6496 3.70153 11.9908 4.01985 10.3905C4.33818 8.79016 5.12392 7.32015 6.2777 6.16637C7.43148 5.01259 8.90149 4.22685 10.5018 3.90852C12.1022 3.59019 13.761 3.75357 15.2685 4.37799C16.776 5.00242 18.0644 6.05984 18.971 7.41655C19.8775 8.77325 20.3613 10.3683 20.3613 12C20.3589 14.1873 19.4889 16.2843 17.9422 17.8309C16.3956 19.3775 14.2986 20.2475 12.1113 20.25ZM15.5276 11.3756L11.0276 8.37562C10.9146 8.30025 10.7833 8.25696 10.6476 8.25039C10.512 8.24382 10.3771 8.27421 10.2573 8.33831C10.1376 8.40241 10.0375 8.49782 9.96778 8.61436C9.89804 8.7309 9.86124 8.86419 9.86133 9V15C9.86124 15.1358 9.89804 15.2691 9.96778 15.3856C10.0375 15.5022 10.1376 15.5976 10.2573 15.6617C10.3771 15.7258 10.512 15.7562 10.6476 15.7496C10.7833 15.743 10.9146 15.6998 11.0276 15.6244L15.5276 12.6244C15.6305 12.5559 15.7148 12.4631 15.7732 12.3542C15.8315 12.2452 15.8621 12.1236 15.8621 12C15.8621 11.8764 15.8315 11.7548 15.7732 11.6458C15.7148 11.5369 15.6305 11.4441 15.5276 11.3756ZM11.3613 13.5984V10.4062L13.7595 12L11.3613 13.5984Z" fill="#E62F2B"></path></svg>