<svg width="24" height="24" viewBox="0 0 24 24" fill="none" xmlns="http://www.w3.org/2000/svg"><path opacity="0.2" d="M17.2624 13.8468C17.1596 13.9371 17.0831 14.0535 17.0412 14.1837C16.9993 14.314 16.9934 14.4531 17.0242 14.5865L18.2917 20.0746C18.3252 20.2179 18.3158 20.3679 18.2646 20.506C18.2135 20.644 18.1228 20.7639 18.004 20.8508C17.8851 20.9376 17.7433 20.9876 17.5963 20.9944C17.4492 21.0013 17.3034 20.9647 17.177 20.8893L12.3864 17.983C12.27 17.9122 12.1364 17.8748 12.0002 17.8748C11.8639 17.8748 11.7303 17.9122 11.6139 17.983L6.82329 20.8893C6.69689 20.9647 6.55108 21.0013 6.40404 20.9944C6.257 20.9876 6.11522 20.9376 5.99638 20.8508C5.87753 20.7639 5.78688 20.644 5.7357 20.506C5.68453 20.3679 5.67511 20.2179 5.7086 20.0746L6.9761 14.5865C7.00691 14.4531 7.00104 14.314 6.95912 14.1837C6.91719 14.0535 6.84077 13.9371 6.73798 13.8468L2.50892 10.1577C2.39585 10.0616 2.31383 9.93413 2.27324 9.79141C2.23265 9.64869 2.2353 9.49713 2.28087 9.35592C2.32643 9.21471 2.41286 9.09018 2.52922 8.9981C2.64558 8.90602 2.78663 8.85053 2.93454 8.83864L8.50891 8.35677C8.64492 8.34465 8.77503 8.29564 8.88522 8.21502C8.99542 8.1344 9.08152 8.02522 9.13423 7.89927L11.312 2.70927C11.3702 2.57508 11.4663 2.46084 11.5886 2.38058C11.7109 2.30033 11.8539 2.25757 12.0002 2.25757C12.1464 2.25757 12.2895 2.30033 12.4117 2.38058C12.534 2.46084 12.6301 2.57508 12.6883 2.70927L14.8661 7.89927C14.9188 8.02522 15.0049 8.1344 15.1151 8.21502C15.2253 8.29564 15.3554 8.34465 15.4914 8.35677L21.0658 8.83864C21.2137 8.85053 21.3548 8.90602 21.4711 8.9981C21.5875 9.09018 21.6739 9.21471 21.7195 9.35592C21.765 9.49713 21.7677 9.64869 21.7271 9.79141C21.6865 9.93413 21.6045 10.0616 21.4914 10.1577L17.2624 13.8468Z" fill="#9DA5AC"></path><path d="M22.4248 9.121C22.334 8.84104 22.1628 8.594 21.9326 8.41063C21.7024 8.22726 21.4233 8.11566 21.1301 8.08975L15.5623 7.60974L13.3798 2.41974C13.2662 2.14742 13.0745 1.9148 12.829 1.75117C12.5834 1.58755 12.2949 1.50024 11.9998 1.50024C11.7047 1.50024 11.4163 1.58755 11.1707 1.75117C10.9251 1.9148 10.7335 2.14742 10.6198 2.41974L8.44389 7.60974L2.86951 8.09256C2.57517 8.11729 2.29468 8.22838 2.06322 8.41188C1.83176 8.59539 1.65964 8.84315 1.56842 9.1241C1.47721 9.40504 1.47098 9.70666 1.5505 9.99113C1.63003 10.2756 1.79177 10.5303 2.01545 10.7232L6.24451 14.4188L4.97701 19.9069C4.90999 20.1941 4.92911 20.4947 5.03199 20.7711C5.13488 21.0475 5.31695 21.2874 5.55545 21.4609C5.79394 21.6344 6.07829 21.7337 6.37293 21.7464C6.66756 21.7592 6.95942 21.6848 7.21201 21.5326L11.9933 18.6263L16.7848 21.5326C17.0374 21.6848 17.3293 21.7592 17.6239 21.7464C17.9186 21.7337 18.2029 21.6344 18.4414 21.4609C18.6799 21.2874 18.862 21.0475 18.9648 20.7711C19.0677 20.4947 19.0868 20.1941 19.0198 19.9069L17.7533 14.4132L21.9814 10.7232C22.205 10.5296 22.3665 10.2742 22.4454 9.98914C22.5243 9.70406 22.5171 9.40202 22.4248 9.121ZM20.9979 9.58974L16.7698 13.2797C16.564 13.4587 16.411 13.6905 16.327 13.95C16.2431 14.2095 16.2316 14.487 16.2936 14.7526L17.5639 20.2501L12.7761 17.3438C12.5425 17.2016 12.2743 17.1263 12.0008 17.1263C11.7273 17.1263 11.459 17.2016 11.2255 17.3438L6.4442 20.2501L7.70608 14.7563C7.76809 14.4907 7.75652 14.2132 7.6726 13.9537C7.58869 13.6942 7.43561 13.4625 7.22983 13.2835L2.99983 9.59537C2.99948 9.59257 2.99948 9.58974 2.99983 9.58693L8.57233 9.10506C8.84439 9.08108 9.10474 8.98327 9.3253 8.82219C9.54586 8.6611 9.71826 8.44286 9.82389 8.191L11.9998 3.00756L14.1748 8.191C14.2805 8.44286 14.4529 8.6611 14.6734 8.82219C14.894 8.98327 15.1543 9.08108 15.4264 9.10506L20.9998 9.58693C20.9998 9.58693 20.9998 9.59256 20.9998 9.59349L20.9979 9.58974Z" fill="#9DA5AC"></path></svg>