<svg width="13" height="12" viewBox="0 0 13 12" fill="none" xmlns="http://www.w3.org/2000/svg"><g clip-path="url(#clip0_132_5325)"><path d="M11.9807 6.8824C12.0744 6.8824 12.1641 6.91958 12.2303 6.98577C12.2965 7.05196 12.3337 7.14173 12.3337 7.23534C12.3337 7.32894 12.2965 7.41872 12.2303 7.4849C12.1641 7.55109 12.0744 7.58828 11.9807 7.58828H8.08145C7.82098 7.86982 7.53585 8.1275 7.22945 8.35822C6.72457 8.73763 6.18792 9.02069 5.6278 9.1654C5.00839 9.3251 4.34839 9.42728 3.68927 9.4841C3.44232 9.50541 3.19481 9.51971 2.94704 9.52698L0.946745 11.709C0.915883 11.7448 0.878162 11.774 0.835815 11.7949C0.793468 11.8158 0.747357 11.828 0.700213 11.8307C0.653069 11.8335 0.605852 11.8268 0.561356 11.8109C0.516861 11.7951 0.475994 11.7705 0.441174 11.7386C0.406355 11.7067 0.378292 11.6682 0.358647 11.6252C0.339002 11.5823 0.328176 11.5358 0.326808 11.4886C0.325441 11.4414 0.33356 11.3944 0.350686 11.3504C0.367812 11.3064 0.393596 11.2663 0.42651 11.2324L4.21604 7.09804V0.529455C4.21604 0.435849 4.25322 0.346077 4.31941 0.279888C4.3856 0.213698 4.47537 0.176514 4.56898 0.176514C4.66259 0.176514 4.75236 0.213698 4.81855 0.279888C4.88474 0.346077 4.92192 0.435849 4.92192 0.529455V0.67469L7.9168 2.33863C8.15892 2.4731 8.15892 2.8211 7.9168 2.95557L4.92192 4.61951V6.8824H11.9807ZM4.72427 7.58828L3.63139 8.78051C4.25345 8.72687 4.8748 8.63051 5.45133 8.48175C5.9121 8.36298 6.36898 8.12193 6.80539 7.79387C6.89433 7.72698 6.9801 7.65816 7.06269 7.58828H4.72427ZM4.92192 3.81198L7.01874 2.6471L4.92192 1.48222V3.81198Z" fill="#9DA5AC"></path></g><defs><clipPath id="clip0_132_5325"><rect width="12" height="12" fill="white" transform="translate(0.333496)"></rect></clipPath></defs></svg>